#!OML:ASF F:\VICON\USERDATA\INSTALL\rory3\rory3.ASF
:FULLY-SPECIFIED
:DEGREES
356
root 3.70325 16.992 0.0568462 8.9189 -1.53642 -1.00935
lowerback -0.98703 -0.414281 -0.520044
upperback 0.829765 -0.536103 -0.608715
thorax 1.40149 -0.269837 -0.343483
lowerneck -7.42568 10.4417 7.42427
upperneck 48.6026 15.1029 0.121931
head 21.6507 7.1733 1.65926
rclavicle 5.96354e-015 1.19271e-015
rhumerus -9.33375 12.3385 -75.5364
rradius 111.084
rwrist -53.5114
rhand -2.13635 -46.2059
rfingers 7.12502
rthumb 23.5426 -74.7851
lclavicle 5.96354e-015 1.19271e-015
lhumerus 22.007 -16.6284 52.0244
lradius 72.2932
lwrist 70.36
lhand -25.3107 -14.9282
lfingers 7.12502
lthumb 1.21153 15.0481
rfemur -51.0395 10.8037 17.3257
rtibia 72.4154
rfoot 13.4322 -2.80635
rtoes -22.2764
lfemur -27.2256 -2.41276 -26.7093
ltibia 40.6766
lfoot -19.6255 14.1534
ltoes 11.5146
357
root 3.6756 16.956 0.00696294 9.01734 -1.63235 -1.35561
lowerback -0.427395 -0.344146 -0.495397
upperback 0.677973 -0.450789 -0.437216
thorax 0.933462 -0.227167 -0.175318
lowerneck -7.86808 10.4554 7.72482
upperneck 48.7964 15.1697 -0.131502
head 22.228 7.20165 1.52175
rclavicle -2.0773e-014 3.57812e-015
rhumerus -9.58835 12.3345 -75.8388
rradius 110.717
rwrist -53.5426
rhand -2.46229 -45.7622
rfingers 7.12502
rthumb 23.2299 -74.3811
lclavicle -2.0773e-014 3.57812e-015
lhumerus 21.842 -16.7923 52.5573
lradius 71.986
lwrist 70.1401
lhand -25.1824 -16.3964
lfingers 7.12502
lthumb 1.33537 13.5792
rfemur -51.6357 11.2253 17.6575
rtibia 72.5946
rfoot 13.7439 -3.0899
rtoes -21.5156
lfemur -27.8437 -2.53421 -26.1555
ltibia 40.9844
lfoot -19.3553 14.309
ltoes 11.6516
358
root 3.66347 16.9398 -0.00713217 9.04561 -1.57685 -1.1827
lowerback -0.41752 -0.341399 -0.719433
upperback 0.732459 -0.444472 -0.475682
thorax 0.985138 -0.225649 -0.0892636
lowerneck -7.92733 10.4478 7.69012
upperneck 48.6268 15.1795 -0.207767
head 22.1077 7.19493 1.48338
rclavicle 0 -6.36111e-015
rhumerus -9.68047 12.2432 -76.1961
rradius 110.31
rwrist -53.5173
rhand -2.60063 -44.6556
rfingers 7.12502
rthumb 23.0972 -73.2912
lclavicle 0 -6.36111e-015
lhumerus 21.648 -16.8376 53.09
lradius 71.7609
lwrist 69.7955
lhand -25.1426 -19.0233
lfingers 7.12502
lthumb 1.37381 10.9521
rfemur -51.8608 11.1669 17.4458
rtibia 72.7589
rfoot 13.8543 -2.85645
rtoes -22.0865
lfemur -28.0527 -2.74762 -26.2713
ltibia 41.0964
lfoot -19.1934 14.4441
ltoes 11.6557
359
root 3.66073 16.9449 0.000798088 8.97048 -1.49199 -0.693025
lowerback -0.6281 -0.398502 -1.1895
upperback 0.892539 -0.509932 -0.57853
thorax 1.27078 -0.263192 0.0654739
lowerneck -7.63293 10.4285 7.41585
upperneck 48.5189 15.1722 -0.0967119
head 21.692 7.16654 1.57834
rclavicle -2.48481e-015 7.95139e-016
rhumerus -9.40507 12.2324 -76.4771
rradius 109.849
rwrist -53.5819
rhand -2.48693 -44.3808
rfingers 7.12502
rthumb 23.2063 -73.0027
lclavicle -2.48481e-015 7.95139e-016
lhumerus 21.3247 -16.8386 53.6064
lradius 71.6791
lwrist 69.8029
lhand -25.6175 -17.8344
lfingers 7.12502
lthumb 0.915129 12.1434
rfemur -51.7964 10.9073 16.8956
rtibia 72.873
rfoot 13.829 -2.38329
rtoes -23.4082
lfemur -27.9202 -2.95976 -26.7998
ltibia 41.0623
lfoot -19.1404 14.5856
ltoes 11.4238
360
root 3.66108 16.9539 0.00885426 8.86978 -1.41298 -0.415306
lowerback -0.358523 -0.452808 -1.22274
upperback 0.775984 -0.586468 -0.756291
thorax 0.999458 -0.299444 -0.0960734
lowerneck -8.06638 10.4664 7.34569
upperneck 48.9069 15.0451 0.378145
head 22.2101 7.13809 1.8377
rclavicle -5.96354e-015 6.36111e-015
rhumerus -9.53096 12.2886 -77.0013
rradius 109.359
rwrist -53.6591
rhand -2.1654 -45.0639
rfingers 7.12502
rthumb 23.5147 -73.6466
lclavicle -5.96354e-015 6.36111e-015
lhumerus 20.7612 -17.1031 53.9725
lradius 71.5933
lwrist 69.9177
lhand -25.5053 -17.3358
lfingers 7.12502
lthumb 1.02355 12.6415
rfemur -51.6226 10.7245 16.5554
rtibia 72.874
rfoot 13.8298 -2.12937
rtoes -23.7579
lfemur -27.6043 -3.07439 -27.1133
ltibia 40.769
lfoot -19.0523 14.637
ltoes 11.2683
361
root 3.66146 16.9603 0.016723 8.76527 -1.34922 -0.214592
lowerback -0.366239 -0.498351 -1.28096
upperback 0.815711 -0.645047 -0.858271
thorax 1.04441 -0.329035 -0.168909
lowerneck -7.9995 10.4757 7.19735
upperneck 49.1174 14.976 0.688499
head 22.2774 7.11713 2.01343
rclavicle 9.93923e-015 3.18055e-015
rhumerus -9.69074 12.3212 -77.4609
rradius 108.951
rwrist -53.6961
rhand -2.05664 -45.3506
rfingers 7.12502
rthumb 23.6191 -73.9199
lclavicle 9.93923e-015 3.18055e-015
lhumerus 20.4385 -17.2032 54.3695
lradius 71.4166
lwrist 69.9562
lhand -25.0601 -18.6473
lfingers 7.12502
lthumb 1.45348 11.3275
rfemur -51.392 10.5916 16.2839
rtibia 72.8058
rfoot 13.7104 -2.1152
rtoes -23.0319
lfemur -27.2 -3.14242 -27.3416
ltibia 40.3494
lfoot -18.9481 14.6016
ltoes 11.3483
362
root 3.66203 16.9707 0.0314887 8.56453 -1.2735 -0.0048995
lowerback -0.424758 -0.49534 -1.3136
upperback 0.934771 -0.636313 -0.999102
thorax 1.19794 -0.325219 -0.296044
lowerneck -7.97633 10.4434 7.09912
upperneck 49.2411 14.8449 0.936425
head 22.3024 7.07719 2.13433
rclavicle -4.67144e-015 -1.59028e-015
rhumerus -9.96631 12.1685 -77.9294
rradius 108.681
rwrist -53.6425
rhand -2.16717 -45.0798
rfingers 7.12502
rthumb 23.513 -73.6627
lclavicle -4.67144e-015 -1.59028e-015
lhumerus 20.2145 -17.3664 54.8136
lradius 71.2905
lwrist 69.819
lhand -25.8319 -16.1858
lfingers 7.12502
lthumb 0.708072 13.7928
rfemur -50.9814 10.4464 16.0378
rtibia 72.7044
rfoot 13.4825 -1.94601
rtoes -22.8948
lfemur -26.6373 -3.26723 -27.5934
ltibia 39.9464
lfoot -18.8784 14.6572
ltoes 11.3257
363
root 3.66615 16.9842 0.0467984 8.33044 -1.11909 0.188506
lowerback -1.38411 -0.554835 -1.42525
upperback 1.63779 -0.68089 -1.02469
thorax 2.45984 -0.355633 -0.276365
lowerneck -8.13192 10.4539 7.04741
upperneck 48.9438 14.9253 0.714842
head 22.1327 7.07536 2.03478
rclavicle -8.94531e-016 6.36111e-015
rhumerus -9.2435 12.0279 -78.0402
rradius 108.204
rwrist -53.5972
rhand -2.00194 -45.2155
rfingers 7.12502
rthumb 23.6715 -73.778
lclavicle -8.94531e-016 6.36111e-015
lhumerus 20.5305 -16.8796 55.3128
lradius 71.1138
lwrist 69.5882
lhand -26.8987 -13.1506
lfingers 7.12502
lthumb -0.322257 16.8289
rfemur -50.4773 10.1818 15.8402
rtibia 72.5803
rfoot 13.3446 -1.57888
rtoes -23.9272
lfemur -26.065 -3.43324 -27.8462
ltibia 39.5854
lfoot -18.8097 14.756
ltoes 11.1465
364
root 3.66712 16.9899 0.0573782 8.27856 -0.901154 0.275811
lowerback -1.55577 -0.585667 -1.3022
upperback 1.63757 -0.720026 -1.09149
thorax 2.55404 -0.372575 -0.417218
lowerneck -7.9282 10.4544 7.26526
upperneck 49.0427 14.9545 0.593057
head 22.2155 7.11483 1.9363
rclavicle 5.66536e-015 1.19271e-014
rhumerus -9.62311 11.9423 -78.3742
rradius 107.831
rwrist -53.5244
rhand -2.182 -44.7182
rfingers 7.12502
rthumb 23.4988 -73.3029
lclavicle 5.66536e-015 1.19271e-014
lhumerus 20.0261 -17.0793 55.8946
lradius 71.0405
lwrist 69.5989
lhand -26.8572 -12.2572
lfingers 7.12502
lthumb -0.282199 17.7224
rfemur -50.232 9.87432 15.7438
rtibia 72.4854
rfoot 13.3015 -1.46385
rtoes -24.2958
lfemur -25.7827 -3.57655 -27.9494
ltibia 39.2253
lfoot -18.598 14.7564
ltoes 11.0355
365
root 3.6659 16.9961 0.0724273 8.3177 -0.650475 0.1925
lowerback -1.99796 -0.658625 -1.04819
upperback 1.7173 -0.814957 -1.09493
thorax 2.88174 -0.415834 -0.573359
lowerneck -7.76937 10.4956 7.41405
upperneck 49.1321 15.0458 0.505295
head 22.291 7.16656 1.88161
rclavicle 1.40143e-014 6.75868e-015
rhumerus -9.86474 12.0517 -78.6191
rradius 107.386
rwrist -53.5716
rhand -3.40881 -42.5723
rfingers 7.12502
rthumb 22.3216 -71.303
lclavicle 1.40143e-014 6.75868e-015
lhumerus 19.6207 -17.2194 56.3245
lradius 70.9786
lwrist 69.6834
lhand -26.4313 -11.6093
lfingers 7.12502
lthumb 0.129183 18.3704
rfemur -50.0756 9.60395 15.8309
rtibia 72.4071
rfoot 13.2158 -1.41355
rtoes -24.1729
lfemur -25.5661 -3.72369 -27.8467
ltibia 38.8442
lfoot -18.3472 14.6928
ltoes 11.1776
366
root 3.6702 17.0045 0.0895494 8.22301 -0.477381 0.486902
lowerback -1.98775 -0.731741 -1.22673
upperback 1.69789 -0.905873 -1.1405
thorax 2.85803 -0.464207 -0.523903
lowerneck -7.62344 10.5022 7.27547
upperneck 49.2008 15.0918 0.553684
head 22.2654 7.17022 1.92904
rclavicle -6.36111e-015 3.97569e-016
rhumerus -10.003 12.3584 -78.6642
rradius 106.757
rwrist -53.7672
rhand -3.51187 -42.0049
rfingers 7.12502
rthumb 22.2226 -70.7474
lclavicle -6.36111e-015 3.97569e-016
lhumerus 19.0674 -17.3128 56.9619
lradius 70.8624
lwrist 69.6562
lhand -26.0983 -11.302
lfingers 7.12502
lthumb 0.450788 18.6773
rfemur -49.7938 9.23009 15.5082
rtibia 72.393
rfoot 13.1767 -1.09867
rtoes -24.2385
lfemur -25.1726 -3.84064 -28.213
ltibia 38.5409
lfoot -18.2619 14.6939
ltoes 11.1888
367
root 3.67256 17.0071 0.102317 8.05362 -0.477597 1.11247
lowerback -1.9882 -0.753286 -1.77362
upperback 1.73845 -0.911782 -1.28994
thorax 2.90691 -0.476961 -0.372028
lowerneck -7.43679 10.4931 7.09283
upperneck 49.184 15.085 0.654299
head 22.1248 7.15891 1.98627
rclavicle -1.78906e-015 -1.15295e-014
rhumerus -9.84324 12.4753 -78.7515
rradius 106.238
rwrist -53.9344
rhand -3.60673 -42.1578
rfingers 7.12502
rthumb 22.1316 -70.9111
lclavicle -1.78906e-015 -1.15295e-014
lhumerus 18.4904 -17.2754 57.6943
lradius 70.7087
lwrist 69.4752
lhand -25.4588 -11.8199
lfingers 7.12502
lthumb 1.06847 18.1572
rfemur -49.5561 8.92737 14.8235
rtibia 72.45
rfoot 13.0937 -0.741096
rtoes -24.3649
lfemur -24.8771 -3.93226 -28.9491
ltibia 38.5609
lfoot -18.3814 14.8432
ltoes 10.7975
